<svg width="32" height="32" viewBox="0 0 32 32" fill="none" xmlns="http://www.w3.org/2000/svg">
<path d="M12.7778 26.1679C12.0031 26.1679 12.1348 25.8728 11.8676 25.1287L9.58984 17.5663L27.1234 7.07239" fill="#FF84B6"/>
<path d="M12.7734 26.1691C13.3712 26.1691 13.6352 25.8933 13.9689 25.5661L17.1568 22.4388L13.1803 20.0197" fill="#DC4180"/>
<path d="M13.1857 20.0196L22.8211 27.2013C23.9208 27.8134 24.7142 27.4964 24.9881 26.1716L28.9103 7.52571C29.3117 5.90158 28.2966 5.1647 27.2446 5.64651L4.21387 14.6055C2.64182 15.2417 2.65119 16.1265 3.92735 16.5207L9.83755 18.3818L23.5203 9.67325C24.1662 9.27807 24.7592 9.49033 24.2726 9.92611" fill="#FF5399"/>
</svg>
