<svg width="32" height="32" viewBox="0 0 32 32" fill="none" xmlns="http://www.w3.org/2000/svg">
<path d="M29 5.65276C27.7 6.32523 26.426 6.59834 25.1 7.01142C23.6427 5.27536 21.4821 5.17929 19.406 5.99997C17.3299 6.82066 15.9701 8.82709 16 11.1286V12.501C11.7815 12.6149 8.0245 10.5865 5.6 7.01142C5.6 7.01142 0.1634 17.2124 10.8 22.1077C8.3664 23.819 5.9393 24.9732 3 24.8524C7.3004 27.3268 11.9869 28.1777 16.0442 26.9343C20.6982 25.5071 24.5228 21.825 25.9905 16.3093C26.4283 14.6318 26.6457 12.8988 26.6366 11.1588C26.634 10.817 28.5996 7.35452 29 5.65139V5.65276Z" fill="#FF5399"/>
</svg>
